{"title":"This.Island,Earth.1955.HQTV.720p.OAR.x264.AC3.[FrOnkY]","uid":10566841,"size":4636352709,"categoryP":"video","categoryS":"hd___movies","magnet":"?xt=urn:btih:5a1a448e2fb039c96e197bf91ea2501230298bac&amp;dn=This.Island%2CEarth.1955.HQTV.720p.OAR.x264.AC3.%5BFrOnkY%5D&amp;tr=udp%3A%2F%2Ftracker.openbittorrent.com%3A80&amp;tr=udp%3A%2F%2Fopen.demonii.com%3A1337&amp;tr=udp%3A%2F%2Ftracker.coppersurfer.tk%3A6969&amp;tr=udp%3A%2F%2Fexodus.desync.com%3A6969","seeders":1,"leechers":0,"uploader":"HDmEntEs","files":-1,"time":1405530829,"description":"The supreme excitement of our time! \n2 1/2 Years in the making! \n\n\nThis.Island,Earth.(Regreso.A.La.Tierra).1955.HQTV.720p.OAR.x264.AC3.[FrOnkY].mkv\n\nFormat                                   : Matroska\nFormat version                           : Version 4 / Version 2\nFile size                                : 4.32 GiB\nDuration                                 : 1h 25mn\nOverall bit rate                         : 7 189 Kbps\nWriting application                      : mkvmerge v6.8.0 ('Theme for Great Cities') 32bit built on Mar  2 2014 21:27:07\nWriting library                          : libebml v1.3.0 + libmatroska v1.4.1\nAttachment                               : Yes / Yes / Yes / Yes / Yes / Yes / Yes / Yes / Yes / Yes / Yes / Yes / Yes / Yes / Yes / Yes / Yes / Yes\n\nVideo\nID                                       : 1\nFormat                                   : AVC\nFormat/Info                              : Advanced Video Codec\nFormat profile                           : &lt;a class=&quot;__cf_email__&quot; href=&quot;/cdn-cgi/l/email-protection&quot; data-cfemail=&quot;4e062729260e027a607f&quot;&gt;[email&amp;#160;protected]&lt;/a&gt;&lt;script cf-hash='f9e31' type=&quot;text/javascript&quot;&gt;\n/* &lt;![CDATA[ */!function(){try{var t=&quot;currentScript&quot;in document?document.currentScript:function(){for(var t=document.getElementsByTagName(&quot;script&quot;),e=t.length;e--;)if(t[e].getAttribute(&quot;cf-hash&quot;))return t[e]}();if(t&amp;&amp;t.previousSibling){var e,r,n,i,c=t.previousSibling,a=c.getAttribute(&quot;data-cfemail&quot;);if(a){for(e=&quot;&quot;,r=parseInt(a.substr(0,2),16),n=2;a.length-n;n+=2)i=parseInt(a.substr(n,2),16)^r,e+=String.fromCharCode(i);e=document.createTextNode(e),c.parentNode.replaceChild(e,c)}}}catch(u){}}();/* ]]&gt; */&lt;/script&gt;\nFormat settings, CABAC                   : Yes\nFormat settings, ReFrames                : 9 frames\nCodec ID                                 : V_MPEG4/ISO/AVC\nDuration                                 : 1h 25mn\nBit rate                                 : 6 789 Kbps\nWidth                                    : 1 280 pixels\nHeight                                   : 688 pixels\nDisplay aspect ratio                     : 1.85:1\nFrame rate mode                          : Constant\nFrame rate                               : 23.976 fps\nColor space                              : YUV\nChroma subsampling                       : 4:2:0\nBit depth                                : 8 bits\nScan type                                : Progressive\nBits/(Pixel*Frame)                       : 0.322\nStream size                              : 4.00 GiB (93%)\nWriting library                          : x264 core 142 r2389 956c8d8\nLanguage                                 : English\nDefault                                  : Yes\nForced                                   : No\n\nAudio #1\nID                                       : 2\nFormat                                   : AC-3\nFormat/Info                              : Audio Coding 3\nMode extension                           : CM (complete main)\nFormat settings, Endianness              : Big\nCodec ID                                 : A_AC3\nDuration                                 : 1h 25mn\nBit rate mode                            : Constant\nBit rate                                 : 192 Kbps\nChannel(s)                               : 2 channels\nChannel positions                        : Front: L R\nSampling rate                            : 48.0 KHz\nBit depth                                : 16 bits\nStream size                              : 118 MiB (3%)\nLanguage                                 : Spanish\nDefault                                  : Yes\nForced                                   : No\n\nAudio #2\nID                                       : 3\nFormat                                   : AC-3\nFormat/Info                              : Audio Coding 3\nMode extension                           : CM (complete main)\nFormat settings, Endianness              : Big\nCodec ID                                 : A_AC3\nDuration                                 : 1h 25mn\nBit rate mode                            : Constant\nBit rate                                 : 192 Kbps\nChannel(s)                               : 2 channels\nChannel positions                        : Front: L R\nSampling rate                            : 48.0 KHz\nBit depth                                : 16 bits\nStream size                              : 118 MiB (3%)\nLanguage                                 : English\nDefault                                  : No\nForced                                   : No\n\nText #1\nID                                       : 4\nFormat                                   : UTF-8\nCodec ID                                 : S_TEXT/UTF8\nCodec ID/Info                            : UTF-8 Plain Text\nTitle                                    : for\nLanguage                                 : Spanish\nDefault                                  : Yes\nForced                                   : No\n\nText #2\nID                                       : 5\nFormat                                   : UTF-8\nCodec ID                                 : S_TEXT/UTF8\nCodec ID/Info                            : UTF-8 Plain Text\nLanguage                                 : Spanish\nDefault                                  : No\nForced                                   : No\n\nText #3\nID                                       : 6\nFormat                                   : UTF-8\nCodec ID                                 : S_TEXT/UTF8\nCodec ID/Info                            : UTF-8 Plain Text\nLanguage                                 : English\nDefault                                  : No\nForced                                   : No\n\nText #4\nID                                       : 7\nFormat                                   : UTF-8\nCodec ID                                 : S_TEXT/UTF8\nCodec ID/Info                            : UTF-8 Plain Text\nLanguage                                 : French\nDefault                                  : No\nForced                                   : No\n\nText #5\nID                                       : 8\nFormat                                   : UTF-8\nCodec ID                                 : S_TEXT/UTF8\nCodec ID/Info                            : UTF-8 Plain Text\nLanguage                                 : Portuguese\nDefault                                  : No\nForced                                   : No\n\nMenu\n00:00:00.000                             : en:Chapter 01\n00:04:18.033                             : en:Chapter 02\n00:08:13.901                             : en:Chapter 03\n00:12:27.868                             : en:Chapter 04\n00:15:44.935                             : en:Chapter 05\n00:21:44.836                             : en:Chapter 06\n00:25:20.570                             : en:Chapter 07\n00:30:37.671                             : en:Chapter 08\n00:35:50.371                             : en:Chapter 09\n00:41:23.472                             : en:Chapter 10\n00:45:37.972                             : en:Chapter 11\n00:50:00.205                             : en:Chapter 12\n00:56:20.872                             : en:Chapter 13\n01:02:51.405                             : en:Chapter 14\n01:07:39.272                             : en:Chapter 15\n01:13:27.839                             : en:Chapter 16\n01:19:22.973                             : en:Chapter 17\n01:25:30.974                             : en:Chapter 18\n\n\nDVD - HQTV\n &lt;a href=&quot;\nhttps://box.jisko.net/i/058ac52e.png&quot; rel=&quot;nofollow&quot; target=&quot;_NEW&quot;&gt;\nhttps://box.jisko.net/i/058ac52e.png&lt;/a&gt; &lt;a href=&quot;\nhttps://box.jisko.net/i/e1cd4f5a.png&quot; rel=&quot;nofollow&quot; target=&quot;_NEW&quot;&gt;\nhttps://box.jisko.net/i/e1cd4f5a.png&lt;/a&gt;\n &lt;a href=&quot;\nhttps://box.jisko.net/i/5b89579b.png&quot; rel=&quot;nofollow&quot; target=&quot;_NEW&quot;&gt;\nhttps://box.jisko.net/i/5b89579b.png&lt;/a&gt; &lt;a href=&quot;\nhttps://box.jisko.net/i/8ce51441.png&quot; rel=&quot;nofollow&quot; target=&quot;_NEW&quot;&gt;\nhttps://box.jisko.net/i/8ce51441.png&lt;/a&gt;\n &lt;a href=&quot;\nhttps://box.jisko.net/i/9dbed23c.png&quot; rel=&quot;nofollow&quot; target=&quot;_NEW&quot;&gt;\nhttps://box.jisko.net/i/9dbed23c.png&lt;/a&gt;","torrent":{"xt":"urn:btih:5a1a448e2fb039c96e197bf91ea2501230298bac","amp;dn":"This.Island%2CEarth.1955.HQTV.720p.OAR.x264.AC3.%5BFrOnkY%5D","amp;tr":["udp%3A%2F%2Ftracker.openbittorrent.com%3A80","udp%3A%2F%2Fopen.demonii.com%3A1337","udp%3A%2F%2Ftracker.coppersurfer.tk%3A6969","udp%3A%2F%2Fexodus.desync.com%3A6969"],"infoHash":"5a1a448e2fb039c96e197bf91ea2501230298bac","infoHashBuffer":{"type":"Buffer","data":[90,26,68,142,47,176,57,201,110,25,123,249,30,162,80,18,48,41,139,172]},"announce":[],"urlList":[]}}